<?xml version="1.0" encoding="utf-8"?>
<!-- Generator: Adobe Illustrator 20.1.0, SVG Export Plug-In . SVG Version: 6.00 Build 0)  -->
<svg version="1.1" id="Layer_1" xmlns="http://www.w3.org/2000/svg" xmlns:xlink="http://www.w3.org/1999/xlink" x="0px" y="0px"
	 viewBox="0 0 120.5 16.5" style="enable-background:new 0 0 120.5 16.5;" xml:space="preserve">
<style type="text/css">
	.st0{fill:#FFFFFF;}
</style>
<g>
	<path class="st0" d="M19.5,16.4H0v-0.6L14.6,1h-6H2.5L2.2,4.7H1.3l0.4-4.3H20v0.5L5.1,15.7h13.5l0.4-4.6h1L19.5,16.4L19.5,16.4z
		 M110,11.4h-8.1l-2.6,4.4h4.7v0.6h-9.2v-0.6h3.5l9.3-15.7h0.5l8.9,15.7h3.4v0.6h-12.1v-0.6h4.1L110,11.4L110,11.4z M102.3,10.7h7.4
		l-3.6-6.3h-0.1L102.3,10.7L102.3,10.7z M42.5,11.4h-8.1l-2.6,4.3h4.7v0.6h-9.2v-0.6h3.5L40.1,0h0.5l8.9,15.7h3.4v0.6h-12v-0.6h4.2
		L42.5,11.4L42.5,11.4z M34.6,10.7H42l-3.6-6.3h-0.1L34.6,10.7L34.6,10.7z M65.7,15.7V1h-4V0.4h14h5c2.7,0,3.4,2.2,3.4,3.6
		c0,2-0.5,3.6-3.4,4.2c-0.1,0-0.5,0-1,0.1l4.3,7.5h3.4v0.6h-7.7l-4.6-8.1h-4.8v7.5h4v0.6H61.7v-0.6h4V15.7z M70.2,1v6.6h4.5
		c1,0,1.7-0.1,2.3-0.2c0.7-0.1,1.4-0.5,1.8-1C79.3,5.9,79.5,5,79.5,4c0-0.9-0.3-1.6-0.7-2c-0.5-0.5-1-0.7-1.7-0.8
		C76.5,1,75.6,1,74.5,1L70.2,1L70.2,1L70.2,1z"/>
</g>
</svg>
